<svg xmlns="http://www.w3.org/2000/svg" viewBox="0 0 30.84 30.62"><defs><style>.cls-1{fill:#fff;}</style></defs><g id="Layer_2" data-name="Layer 2"><g id="Layer_1-2" data-name="Layer 1"><g id="_ffffffff" data-name="#ffffffff"><path class="cls-1" d="M16.44,0h1.44c3.87.22,6.73,3,9.56,5.32s3.83,6.23,3.24,9.72c-.75,6.07-4.34,12.19-10.14,14.61-4.23,1.88-9.19.83-13.07-1.4-6-3.43-9.11-11.37-6.57-17.9C3,3.8,10.05.51,16.44,0M1.88,16c.15,7.08,7,12.67,13.85,12.25,7.87-1.23,12.24-10.1,11-17.43C25,6.3,19,5.44,14.84,6.82c-1.61,2-4.67,3.21-4.4,6.25-1.27,4.1,3.63,5.44,6.7,5.38,1-2.76-.55-4.83-2.5-6.62,2.17-.27,5.24-.45,6,2.19a9.39,9.39,0,0,1-2.17,6c-3.57.84-7.88-.71-9.69-4A11.53,11.53,0,0,1,10,9L8.66,8.49a19.29,19.29,0,0,1,4.8-5.38C8.08,5.32,1.24,9.28,1.88,16Z"/></g></g></g></svg>