<?xml version="1.0" encoding="UTF-8" ?>
<!DOCTYPE svg PUBLIC "-//W3C//DTD SVG 1.1//EN" "http://www.w3.org/Graphics/SVG/1.1/DTD/svg11.dtd">
<svg width="600pt" height="600pt" viewBox="0 0 600 600" version="1.1" xmlns="http://www.w3.org/2000/svg">
<path fill="honeydew" opacity="1.00" d=" M 81.89 49.15 C 95.74 43.93 112.40 47.61 122.69 58.27 C 183.28 121.53 243.84 184.81 304.42 248.08 C 364.83 184.94 425.27 121.83 485.70 58.70 C 492.52 51.53 502.18 47.19 512.07 46.84 C 522.48 46.36 532.99 50.34 540.47 57.59 C 548.16 64.86 552.58 75.41 552.42 85.99 C 552.37 95.80 548.38 105.50 541.55 112.53 C 480.39 176.40 419.24 240.28 358.10 304.16 C 419.34 368.14 480.59 432.11 541.83 496.09 C 548.65 503.24 552.53 513.08 552.42 522.97 C 552.41 533.28 548.04 543.49 540.59 550.62 C 533.31 557.72 523.15 561.72 512.99 561.50 C 502.70 561.39 492.56 556.93 485.51 549.43 C 425.15 486.36 364.76 423.32 304.42 360.23 C 246.51 420.73 188.59 481.23 130.68 541.73 C 125.84 546.55 121.58 552.11 115.65 555.68 C 105.07 562.35 91.20 563.36 79.76 558.32 C 69.12 553.77 60.77 544.20 57.78 533.01 C 54.15 520.19 57.75 505.63 67.03 496.05 C 128.25 432.07 189.51 368.14 250.71 304.15 C 190.74 241.50 130.77 178.85 70.79 116.20 C 67.84 113.11 64.73 110.10 62.46 106.44 C 56.18 96.72 54.68 84.14 58.42 73.20 C 62.07 62.18 70.96 53.07 81.89 49.15 Z" />
</svg>
