<?xml version="1.0" encoding="UTF-8" ?>
<!DOCTYPE svg PUBLIC "-//W3C//DTD SVG 1.1//EN" "http://www.w3.org/Graphics/SVG/1.1/DTD/svg11.dtd">
<svg width="90pt" height="90pt" viewBox="0 0 90 90" version="1.1" xmlns="http://www.w3.org/2000/svg">
<g id="#000000ff">
<path fill="honeydew" opacity="1.00" d=" M 19.07 15.10 C 31.85 6.14 50.72 7.15 62.25 17.77 C 67.33 22.21 70.52 28.46 71.80 35.04 C 64.67 32.70 56.82 32.20 49.65 34.67 C 40.12 37.72 31.98 45.88 30.36 55.95 C 29.57 60.06 30.27 64.23 31.27 68.24 C 28.86 67.53 25.90 65.61 23.62 67.67 C 19.64 70.35 14.91 72.25 10.05 71.88 C 8.57 71.62 8.93 69.62 10.01 69.10 C 12.71 66.82 14.88 64.05 16.31 60.81 C 10.73 55.73 6.57 48.77 6.11 41.11 C 5.17 30.88 10.66 20.76 19.07 15.10 Z" />
<path fill="honeydew" opacity="1.00" d=" M 43.04 45.15 C 51.61 37.63 65.24 37.00 74.63 43.36 C 80.75 47.36 84.84 54.72 83.85 62.12 C 83.42 66.99 80.58 71.16 77.38 74.68 C 79.11 77.58 81.68 79.75 83.96 82.18 C 83.99 83.48 83.35 84.07 82.04 83.95 C 77.31 84.04 72.95 81.92 68.95 79.60 C 62.80 81.39 56.06 81.59 50.07 79.11 C 42.93 76.35 36.94 69.86 36.13 62.07 C 35.33 55.71 38.22 49.26 43.04 45.15 Z" />
</g>
</svg>
