<?xml version="1.0" encoding="UTF-8" ?>
<!DOCTYPE svg PUBLIC "-//W3C//DTD SVG 1.1//EN" "http://www.w3.org/Graphics/SVG/1.1/DTD/svg11.dtd">
<svg width="512pt" height="512pt" viewBox="0 0 512 512" version="1.1" xmlns="http://www.w3.org/2000/svg">
<g id="#ffffffff">
<path fill="#696969" opacity="1.00" d=" M 246.75 44.78 C 253.59 41.42 262.21 42.14 268.38 46.64 C 273.93 50.54 277.36 57.22 277.32 64.01 C 277.35 146.49 277.33 228.98 277.33 311.46 C 286.33 302.41 295.31 293.33 304.31 284.27 C 309.12 279.50 316.35 277.44 322.98 278.73 C 329.34 279.90 335.05 284.16 337.96 289.94 C 341.27 296.26 341.06 304.26 337.42 310.40 C 335.78 313.32 333.23 315.54 330.93 317.91 C 311.85 337.16 292.78 356.43 273.70 375.70 C 271.40 378.01 269.11 380.45 266.17 381.98 C 257.12 387.15 245.14 384.16 238.77 376.15 C 218.39 355.55 198.00 334.97 177.61 314.38 C 172.87 309.62 170.79 302.47 172.01 295.89 C 173.19 289.07 177.94 283.03 184.26 280.23 C 190.41 277.41 197.91 277.81 203.73 281.25 C 206.65 282.90 208.87 285.44 211.20 287.79 C 219.03 295.68 226.85 303.57 234.67 311.46 C 234.67 228.98 234.65 146.50 234.68 64.02 C 234.56 55.98 239.49 48.20 246.75 44.78 Z" />
<path fill="#696969" opacity="1.00" d=" M 61.16 320.19 C 72.97 318.25 84.91 328.07 85.26 340.03 C 85.48 362.31 85.18 384.60 85.41 406.88 C 85.91 417.80 96.03 427.02 106.93 426.66 C 206.32 426.67 305.72 426.67 405.11 426.66 C 416.31 427.04 426.55 417.27 426.63 406.05 C 426.73 384.38 426.61 362.70 426.69 341.03 C 426.69 333.71 430.85 326.63 437.16 322.96 C 443.67 319.04 452.31 319.04 458.82 322.96 C 465.15 326.62 469.29 333.73 469.31 341.05 C 469.37 358.37 469.31 375.70 469.33 393.02 C 469.24 401.61 469.83 410.32 467.90 418.76 C 463.49 440.05 447.36 458.42 426.85 465.60 C 419.55 468.23 411.77 469.41 404.03 469.34 C 304.70 469.32 205.38 469.36 106.06 469.32 C 88.51 469.28 71.26 461.44 59.48 448.48 C 48.81 437.07 42.77 421.54 42.68 405.93 C 42.66 384.31 42.65 362.69 42.69 341.07 C 42.57 330.78 50.96 321.35 61.16 320.19 Z" />
</g>
</svg>
