<?xml version="1.0" encoding="UTF-8" ?>
<!DOCTYPE svg PUBLIC "-//W3C//DTD SVG 1.1//EN" "http://www.w3.org/Graphics/SVG/1.1/DTD/svg11.dtd">
<svg width="96pt" height="96pt" viewBox="0 0 96 96" version="1.1" xmlns="http://www.w3.org/2000/svg">
<g id="#000000ff">
<path fill="honeydew" opacity="1.00" d=" M 42.46 8.78 C 48.84 6.91 56.09 8.49 61.09 12.89 C 66.25 17.28 68.86 24.41 67.74 31.10 C 66.72 38.15 61.56 44.37 54.86 46.77 C 47.99 49.36 39.76 47.73 34.43 42.66 C 29.58 38.27 27.20 31.40 28.24 24.94 C 29.32 17.39 35.12 10.82 42.46 8.78 Z" />
<path fill="honeydew" opacity="1.00" d=" M 21.32 56.47 C 23.16 55.91 25.11 56.01 27.01 55.97 C 42.06 56.08 57.10 55.91 72.14 56.05 C 75.97 55.98 79.51 59.10 79.88 62.92 C 80.39 67.71 79.80 72.91 76.79 76.85 C 72.18 83.00 64.52 85.84 57.21 87.19 C 46.79 88.90 35.53 88.02 26.16 82.85 C 20.10 79.58 15.59 73.12 15.97 66.06 C 15.50 62.14 17.33 57.73 21.32 56.47 Z" />
</g>
</svg>
