<?xml version="1.0" encoding="UTF-8" ?>
<!DOCTYPE svg PUBLIC "-//W3C//DTD SVG 1.1//EN" "http://www.w3.org/Graphics/SVG/1.1/DTD/svg11.dtd">
<svg width="90pt" height="90pt" viewBox="0 0 90 90" version="1.1" xmlns="http://www.w3.org/2000/svg">
<g id="#000000ff">
<path fill="honeydew" opacity="1.00" d=" M 4.76 13.77 C 6.31 11.99 8.80 12.05 10.95 11.98 C 28.64 12.01 46.32 12.02 64.00 11.97 C 66.17 12.04 68.69 11.99 70.25 13.78 C 72.28 15.62 71.81 18.56 72.17 21.00 C 54.77 21.00 37.37 21.02 19.97 20.98 C 17.81 21.04 15.29 20.99 13.73 22.79 C 11.73 24.62 12.08 27.53 11.96 29.97 C 12.04 42.04 11.99 54.11 12.00 66.17 C 9.54 65.80 6.57 66.29 4.74 64.21 C 2.97 62.66 3.06 60.15 2.97 58.01 C 3.00 45.67 3.04 33.33 2.96 21.00 C 3.07 18.54 2.73 15.60 4.76 13.77 Z" />
<path fill="honeydew" opacity="1.00" d=" M 22.15 27.33 C 25.06 26.79 28.04 26.99 30.99 26.98 C 47.35 27.04 63.72 26.96 80.08 27.01 C 83.55 26.60 87.10 29.31 86.92 32.94 C 87.15 44.94 86.88 56.96 87.04 68.97 C 86.93 71.44 87.26 74.40 85.22 76.24 C 83.65 78.02 81.13 77.95 78.97 78.02 C 61.30 77.99 43.64 77.99 25.97 78.02 C 23.84 77.94 21.35 78.01 19.80 76.27 C 17.74 74.44 18.07 71.48 17.96 69.01 C 18.07 57.32 17.94 45.63 18.01 33.94 C 17.78 31.14 19.28 28.08 22.15 27.33 Z" />
</g>
</svg>
