<?xml version="1.0" encoding="UTF-8" ?>
<!DOCTYPE svg PUBLIC "-//W3C//DTD SVG 1.1//EN" "http://www.w3.org/Graphics/SVG/1.1/DTD/svg11.dtd">
<svg width="512pt" height="512pt" viewBox="0 0 512 512" version="1.1" xmlns="http://www.w3.org/2000/svg">
<g id="#515151ff">
<path fill="salmon" opacity="1.00" d=" M 255.36 105.45 C 264.15 104.40 273.54 104.33 281.67 108.33 C 287.18 110.79 291.48 115.11 295.62 119.38 C 345.43 169.24 395.30 219.04 445.11 268.91 C 455.36 279.01 458.23 295.46 452.48 308.58 C 448.73 317.78 440.41 323.77 433.87 330.87 C 427.66 337.50 419.20 342.17 410.06 342.91 C 399.31 344.07 388.25 340.00 380.69 332.31 C 343.97 295.69 307.37 258.96 270.66 222.34 C 268.51 220.18 266.61 217.70 263.97 216.11 C 261.28 217.60 259.41 220.12 257.25 222.25 C 220.40 259.06 183.60 295.94 146.73 332.73 C 136.77 342.80 120.68 345.88 107.65 340.40 C 101.24 338.05 96.22 333.24 91.59 328.41 C 86.07 322.59 79.44 317.45 76.05 309.97 C 69.61 296.85 72.03 279.85 82.34 269.37 C 131.82 219.85 181.34 170.35 230.85 120.85 C 237.41 113.62 245.32 106.82 255.36 105.45 Z" />
</g>
</svg>
